ply
format ascii 0.5
comment Debug PLY file
element vertex 8
property float x
property float y
property float z
property uchar red
property uchar green
property uchar blue
element face 12
property list uchar int vertex_index
end_header
0.0 0.0 0.0 255 0 0
0.5 0.0 0.0 0 255 0
0.5 0.5 0.0 0 0 255
0.0 0.5 0.0 255 255 0
0.0 0.0 0.5 255 0 255
0.5 0.0 0.5 0 255 255
0.5 0.5 0.5 128 128 128
0.0 0.5 0.5 255 255 255
3 0 1 2
3 0 2 3
3 4 5 6
3 4 6 7
3 0 1 5
3 0 5 4
3 2 3 7
3 2 7 6
3 0 3 7
3 0 7 4
3 1 2 6
3 1 6 5
